<?xml version="1.0" encoding="utf-8"?>
<svg viewBox="-75.066 -164.369 1024 998.7381" xmlns="http://www.w3.org/2000/svg">
  <path fill-rule="evenodd" clip-rule="evenodd" d="M 436.934 -164.369 C 154.054 -164.369 -75.066 64.751 -75.066 347.631 C -75.066 574.191 71.494 765.551 275.014 833.391 C 300.614 837.871 310.214 822.511 310.214 809.071 C 310.214 796.911 309.574 756.591 309.574 713.711 C 180.934 737.391 147.654 682.351 137.414 653.551 C 131.654 638.831 106.694 593.391 84.934 581.231 C 67.014 571.631 41.414 547.951 84.294 547.311 C 124.614 546.671 153.414 584.431 163.014 599.791 C 209.094 677.231 282.694 655.471 312.134 642.031 C 316.614 608.751 330.054 586.351 344.774 573.551 C 230.854 560.751 111.814 516.591 111.814 320.751 C 111.814 265.071 131.654 218.991 164.294 183.151 C 159.174 170.351 141.254 117.871 169.414 47.471 C 169.414 47.471 212.294 34.031 310.214 99.951 C 351.174 88.431 394.694 82.671 438.214 82.671 C 481.734 82.671 525.254 88.431 566.214 99.951 C 664.134 33.391 707.014 47.471 707.014 47.471 C 735.174 117.871 717.254 170.351 712.134 183.151 C 744.774 218.991 764.614 264.431 764.614 320.751 C 764.614 517.231 644.934 560.751 531.014 573.551 C 549.574 589.551 565.574 620.271 565.574 668.271 C 565.574 736.751 564.934 791.791 564.934 809.071 C 564.934 822.511 574.534 838.511 600.134 833.391 C 802.374 765.551 948.934 573.551 948.934 347.631 C 948.934 64.751 719.814 -164.369 436.934 -164.369 Z" id="path833" style="fill-opacity: 1;" transform="matrix(0.9999999999999999, 0, 0, 0.9999999999999999, 0, -1.4210854715202004e-14)"/>
</svg>