<?xml version="1.0" encoding="utf-8"?>
<svg viewBox="212.934 111 448.0007 448" xmlns="http://www.w3.org/2000/svg">
  <path d="M 625.104 111 L 251.214 111 C 230.784 111 212.934 125.7 212.934 145.89 L 212.934 520.61 C 212.934 540.91 230.784 559 251.214 559 L 624.994 559 C 645.534 559 660.934 540.79 660.934 520.61 L 660.934 145.89 C 661.054 125.7 645.534 111 625.104 111 Z M 351.804 484.43 L 287.624 484.43 L 287.624 284.88 L 351.804 284.88 L 351.804 484.43 Z M 321.934 254.54 L 321.474 254.54 C 300.934 254.54 287.634 239.25 287.634 220.11 C 287.634 200.62 301.284 185.69 322.284 185.69 C 343.284 185.69 356.134 200.51 356.594 220.11 C 356.584 239.25 343.284 254.54 321.934 254.54 Z M 586.364 484.43 L 522.184 484.43 L 522.184 375.32 C 522.184 349.18 512.844 331.32 489.624 331.32 C 471.884 331.32 461.384 343.32 456.714 355.01 C 454.964 359.21 454.494 364.93 454.494 370.77 L 454.494 484.43 L 390.314 484.43 L 390.314 284.88 L 454.494 284.88 L 454.494 312.65 C 463.834 299.35 478.424 280.21 512.374 280.21 C 554.504 280.21 586.374 307.98 586.374 367.85 L 586.364 484.43 Z" style="" transform="matrix(0.9999999999999999, 0, 0, 0.9999999999999999, 0, -1.4210854715202004e-14)"/>
</svg>