<?xml version="1.0" encoding="utf-8"?>
<svg viewBox="424.991 323 23.886 24" xmlns="http://www.w3.org/2000/svg">
  <path d="M 424.991 347 L 426.678 340.837 C 425.637 339.033 425.09 336.988 425.091 334.891 C 425.094 328.335 430.429 323 436.984 323 C 440.165 323.001 443.151 324.24 445.397 326.488 C 447.642 328.736 448.878 331.724 448.877 334.902 C 448.874 341.459 443.539 346.794 436.984 346.794 C 434.994 346.793 433.033 346.294 431.296 345.346 L 424.991 347 Z M 431.588 343.193 C 433.264 344.188 434.864 344.784 436.98 344.785 C 442.428 344.785 446.866 340.351 446.869 334.9 C 446.871 329.438 442.454 325.01 436.988 325.008 C 431.536 325.008 427.101 329.442 427.099 334.892 C 427.098 337.117 427.75 338.783 428.845 340.526 L 427.846 344.174 L 431.588 343.193 Z M 442.975 337.729 C 442.901 337.605 442.703 337.531 442.405 337.382 C 442.108 337.233 440.647 336.514 440.374 336.415 C 440.102 336.316 439.904 336.266 439.705 336.564 C 439.507 336.861 438.937 337.531 438.764 337.729 C 438.591 337.927 438.417 337.952 438.12 337.803 C 437.823 337.654 436.865 337.341 435.73 336.328 C 434.847 335.54 434.25 334.567 434.077 334.269 C 433.904 333.972 434.059 333.811 434.207 333.663 C 434.341 333.53 434.504 333.316 434.653 333.142 C 434.804 332.97 434.853 332.846 434.953 332.647 C 435.052 332.449 435.003 332.275 434.928 332.126 C 434.853 331.978 434.259 330.515 434.012 329.92 C 433.77 329.341 433.525 329.419 433.343 329.41 L 432.773 329.4 C 432.575 329.4 432.253 329.474 431.981 329.772 C 431.709 330.07 430.941 330.788 430.941 332.251 C 430.941 333.714 432.006 335.127 432.154 335.325 C 432.303 335.523 434.249 338.525 437.23 339.812 C 437.939 340.118 438.493 340.301 438.924 340.438 C 439.636 340.664 440.284 340.632 440.796 340.556 C 441.367 340.471 442.554 339.837 442.802 339.143 C 443.05 338.448 443.05 337.853 442.975 337.729 Z" style="" transform="matrix(0.9999999999999999, 0, 0, 0.9999999999999999, 0, -1.4210854715202004e-14)"/>
</svg>